<svg width="16" height="16" viewBox="0 0 16 16" fill="none" xmlns="http://www.w3.org/2000/svg">
<path d="M8.91683 15.0672L8.91683 3.16899C8.91683 3.16692 8.92099 3.16484 8.92099 3.16692L13.2555 7.65494C13.6056 8.01788 14.1871 8.03032 14.5517 7.67982C14.9164 7.3314 14.9289 6.75277 14.5767 6.38983L8.67718 0.279983C8.50421 0.101623 8.26456 0 8.01657 0C7.7665 0 7.52894 0.101623 7.35597 0.279983L1.42306 6.42301C1.25218 6.5993 1.16674 6.82743 1.16674 7.05557C1.16674 7.29614 1.26051 7.53465 1.44807 7.71301C1.81275 8.06143 2.39417 8.05106 2.74426 7.68812L7.07881 3.2001C7.08089 3.19803 7.08298 3.2001 7.08298 3.20217L7.08298 15.088C7.08298 15.5733 7.46434 15.9694 7.94364 15.9984C8.47504 16.0295 8.91683 15.5961 8.91683 15.0672Z" fill="#8893A7"/>
</svg>
