<svg width="16" height="16" viewBox="0 0 16 16" fill="none" xmlns="http://www.w3.org/2000/svg">
<path d="M0.932778 8.91683L12.831 8.91683C12.8331 8.91683 12.8352 8.92099 12.8331 8.92099L8.34506 13.2555C7.98212 13.6056 7.96968 14.1871 8.32018 14.5517C8.6686 14.9164 9.24723 14.9289 9.61017 14.5767L15.72 8.67718C15.8984 8.50421 16 8.26456 16 8.01657C16 7.7665 15.8984 7.52894 15.72 7.35597L9.57699 1.42306C9.4007 1.25218 9.17257 1.16674 8.94443 1.16674C8.70386 1.16674 8.46535 1.26051 8.28699 1.44807C7.93857 1.81275 7.94894 2.39417 8.31188 2.74426L12.7999 7.07881C12.802 7.08089 12.7999 7.08298 12.7978 7.08298L0.912039 7.08298C0.426735 7.08298 0.030612 7.46434 0.00157642 7.94364C-0.0295334 8.47504 0.403922 8.91683 0.932778 8.91683Z" fill="#8893A7"/>
</svg>
