<svg width="16" height="16" viewBox="0 0 16 16" fill="none" xmlns="http://www.w3.org/2000/svg">
<path d="M7.08317 0.932778L7.08317 12.831C7.08317 12.8331 7.07901 12.8352 7.07901 12.8331L2.74446 8.34506C2.39436 7.98212 1.81295 7.96968 1.44826 8.32018C1.08358 8.6686 1.07107 9.24723 1.42325 9.61017L7.32282 15.72C7.49579 15.8984 7.73544 16 7.98343 16C8.2335 16 8.47106 15.8984 8.64403 15.72L14.5769 9.57699C14.7478 9.4007 14.8333 9.17257 14.8333 8.94443C14.8333 8.70386 14.7395 8.46535 14.5519 8.28699C14.1872 7.93857 13.6058 7.94894 13.2557 8.31188L8.92119 12.7999C8.91911 12.802 8.91702 12.7999 8.91702 12.7978V0.912039C8.91702 0.426735 8.53566 0.030612 8.05636 0.00157642C7.52496 -0.0295334 7.08317 0.403922 7.08317 0.932778Z" fill="#8893A7"/>
</svg>
