<svg width="16" height="16" viewBox="0 0 16 16" fill="none" xmlns="http://www.w3.org/2000/svg">
<path d="M15.0672 7.08317H3.16899C3.16692 7.08317 3.16484 7.07901 3.16692 7.07901L7.65494 2.74446C8.01788 2.39436 8.03032 1.81295 7.67982 1.44826C7.3314 1.08358 6.75277 1.07107 6.38983 1.42325L0.279983 7.32282C0.101623 7.49579 0 7.73544 0 7.98343C0 8.2335 0.101623 8.47106 0.279983 8.64403L6.42301 14.5769C6.5993 14.7478 6.82743 14.8333 7.05557 14.8333C7.29614 14.8333 7.53465 14.7395 7.71301 14.5519C8.06143 14.1872 8.05106 13.6058 7.68812 13.2557L3.2001 8.92119C3.19803 8.91911 3.2001 8.91702 3.20217 8.91702H15.088C15.5733 8.91702 15.9694 8.53566 15.9984 8.05636C16.0295 7.52496 15.5961 7.08317 15.0672 7.08317Z" fill="#8893A7"/>
</svg>
